<svg width="40" height="40" viewBox="0 0 40 40" fill="none" xmlns="http://www.w3.org/2000/svg">
<path fill-rule="evenodd" clip-rule="evenodd" d="M17.6472 18.2356H11.7648C10.7899 18.2356 10 19.0259 10 20.0004C10 20.9749 10.7899 21.7652 11.7648 21.7652H17.6472C17.9717 21.7652 18.2352 22.0286 18.2352 22.3532V28.2356C18.2352 29.2105 19.0254 30.0004 20 30.0004C20.9745 30.0004 21.7648 29.2105 21.7648 28.2356V22.3532C21.7648 22.0286 22.0282 21.7652 22.3528 21.7652H28.2351C29.21 21.7652 29.9999 20.9749 29.9999 20.0004C29.9999 19.0259 29.2101 18.2356 28.2351 18.2356H22.3528C22.0282 18.2356 21.7648 17.9722 21.7648 17.6476V11.7652C21.7648 10.7903 20.9745 10.0004 20 10.0004C19.0254 10.0004 18.2352 10.7903 18.2352 11.7652V17.6476C18.2352 17.9721 17.9717 18.2356 17.6472 18.2356Z" fill="url(#paint0_linear_446_5639)"/>
<path d="M20 36.4708C29.0964 36.4708 36.4706 29.0965 36.4706 20.0002C36.4706 10.9039 29.0963 3.52962 20 3.52962C10.9037 3.52962 3.52941 10.9039 3.52941 20.0002C3.52941 29.0965 10.9037 36.4708 20 36.4708ZM20 40C8.95378 40 0 31.046 0 20C0 8.95399 8.95399 0 20 0C31.046 0 40 8.95399 40 20C40 31.046 31.046 40 20 40Z" fill="url(#paint1_linear_446_5639)"/>
<defs>
<linearGradient id="paint0_linear_446_5639" x1="8.14286" y1="9.33376" x2="32.6299" y2="13.5453" gradientUnits="userSpaceOnUse">
<stop stop-color="#74DE6F"/>
<stop offset="0.859375" stop-color="#CDE768"/>
</linearGradient>
<linearGradient id="paint1_linear_446_5639" x1="-3.71429" y1="-1.33334" x2="45.2599" y2="7.08986" gradientUnits="userSpaceOnUse">
<stop stop-color="#74DE6F"/>
<stop offset="0.859375" stop-color="#CDE768"/>
</linearGradient>
</defs>
</svg>
