<svg width="45" height="46" viewBox="0 0 45 46" fill="none" xmlns="http://www.w3.org/2000/svg">
<path fill-rule="evenodd" clip-rule="evenodd" d="M22.5071 1.55213C22.0955 1.55213 21.7005 1.71568 21.4094 2.00672C21.1184 2.29777 20.9548 2.69277 20.9548 3.10439C20.9548 3.51602 21.1184 3.91102 21.4094 4.20206C21.7005 4.49311 22.0955 4.65665 22.5071 4.65665C22.9187 4.65665 23.3137 4.49311 23.6048 4.20206C23.8958 3.91102 24.0594 3.51602 24.0594 3.10439C24.0594 2.69277 23.8958 2.29777 23.6048 2.00672C23.3137 1.71568 22.9187 1.55213 22.5071 1.55213ZM18.7041 9.31344H26.3101C26.0707 8.1347 25.2984 7.13336 24.2188 6.60284C23.1395 6.07236 21.8748 6.07236 20.7954 6.60284C19.7158 7.13331 18.9435 8.1347 18.7041 9.31344ZM10.9427 9.88792C11.1635 10.1104 11.2286 10.4437 11.108 10.7327C10.9878 11.022 10.7051 11.2105 10.3918 11.2105C10.0783 11.2105 9.79588 11.022 9.67531 10.7327C9.55473 10.4437 9.61987 10.1104 9.84058 9.88792C9.98784 9.72611 10.1964 9.6336 10.4151 9.6336C10.6337 9.6336 10.8423 9.72611 10.9892 9.88792H10.9427ZM39.5824 18.627C39.1708 18.627 38.7758 18.7905 38.4848 19.0816C38.1937 19.3726 38.0302 19.7676 38.0302 20.1792C38.0302 20.5909 38.1937 20.9859 38.4848 21.2769C38.7758 21.568 39.1708 21.7315 39.5824 21.7315C39.9941 21.7315 40.3891 21.568 40.6801 21.2769C40.9712 20.9859 41.1347 20.5909 41.1347 20.1792C41.1347 19.7676 40.9712 19.3726 40.6801 19.0816C40.3891 18.7905 39.9941 18.627 39.5824 18.627ZM5.43266 18.627C5.02104 18.627 4.62604 18.7905 4.33499 19.0816C4.04395 19.3726 3.8804 19.7676 3.8804 20.1792C3.8804 20.5909 4.04395 20.9859 4.33499 21.2769C4.62604 21.568 5.02104 21.7315 5.43266 21.7315C5.84429 21.7315 6.23929 21.568 6.53033 21.2769C6.82138 20.9859 6.98492 20.5909 6.98492 20.1792C6.98492 19.7676 6.82138 19.3726 6.53033 19.0816C6.23929 18.7905 5.84429 18.627 5.43266 18.627ZM35.7789 26.3883H43.385C43.1456 25.2096 42.3733 24.2082 41.2936 23.6777C40.2143 23.1472 38.9496 23.1472 37.8703 23.6777C36.7907 24.2082 36.0184 25.2096 35.7789 26.3883ZM1.62918 26.3883H9.23526C8.99584 25.2096 8.22354 24.2082 7.14388 23.6777C6.06457 23.1472 4.79987 23.1472 3.72056 23.6777C2.6409 24.2082 1.86858 25.2096 1.62918 26.3883ZM22.5075 35.7019C22.0959 35.7019 21.7009 35.8654 21.4099 36.1565C21.1188 36.4475 20.9553 36.8425 20.9553 37.2541C20.9553 37.6658 21.1188 38.0608 21.4099 38.3518C21.7009 38.6428 22.0959 38.8064 22.5075 38.8064C22.9192 38.8064 23.3142 38.6428 23.6052 38.3518C23.8963 38.0608 24.0598 37.6658 24.0598 37.2541C24.0598 36.8425 23.8963 36.4475 23.6052 36.1565C23.3142 35.8654 22.9192 35.7019 22.5075 35.7019ZM18.7045 43.4632H26.3106C26.0712 42.2844 25.2989 41.2831 24.2192 40.7526C23.1399 40.2221 21.8752 40.2221 20.7959 40.7526C19.7162 41.2831 18.9439 42.2844 18.7045 43.4632ZM26.8383 6.79874C27.5586 7.74429 27.9463 8.90122 27.9405 10.0897C27.9405 10.2955 27.8587 10.493 27.7132 10.6386C27.5676 10.7841 27.3701 10.8658 27.1643 10.8658H17.8508C17.4222 10.8658 17.0746 10.5183 17.0746 10.0897C17.0719 8.8919 17.471 7.7277 18.2076 6.78357C16.4461 7.2697 14.7781 8.04614 13.2716 9.08075C13.1455 9.17257 12.993 9.22142 12.8371 9.22038C12.5814 9.2183 12.3437 9.09045 12.2006 8.87908C12.0824 8.71104 12.0374 8.50245 12.0755 8.3008C12.1133 8.09915 12.2314 7.9214 12.4022 7.80775C14.653 6.24821 17.2357 5.23339 19.9463 4.84319C19.5953 4.33074 19.4062 3.72539 19.403 3.10448C19.403 1.99537 19.9948 0.97043 20.9553 0.415785C21.9158 -0.138595 23.0994 -0.138595 24.0598 0.415785C25.0203 0.97051 25.6121 1.99546 25.6121 3.10448C25.6135 3.72366 25.4298 4.32899 25.0844 4.84319C28.403 5.32203 31.5207 6.72223 34.084 8.88457C36.6466 11.0467 38.5516 13.8844 39.5827 17.0748C40.4059 17.0748 41.1956 17.4019 41.778 17.984C42.3601 18.5665 42.6872 19.3561 42.6872 20.1794C42.6855 20.9413 42.4038 21.6762 41.8955 22.2437C42.8251 22.6869 43.6103 23.3843 44.1598 24.2551C44.7089 25.1261 45.0003 26.1347 45 27.1646C45 27.3704 44.9182 27.5679 44.7727 27.7134C44.6272 27.8589 44.4297 27.9407 44.2239 27.9407H39.5827C38.6188 30.9905 36.8496 33.7235 34.4616 35.852C32.074 37.9801 29.1563 39.4246 26.016 40.0327C27.2523 41.0781 27.9581 42.6203 27.9407 44.2394C27.9407 44.4453 27.859 44.6427 27.7134 44.7883C27.5679 44.9338 27.3704 45.0156 27.1646 45.0156H17.851C17.4224 45.0156 17.0749 44.668 17.0749 44.2394C17.079 42.6081 17.8136 41.0646 19.0772 40.0327C15.937 39.4246 13.0192 37.9801 10.6316 35.852C8.24358 33.7235 6.47444 30.9904 5.51053 27.9407H0.776131C0.347529 27.9407 0 27.5932 0 27.1646C0.00311836 26.1354 0.296243 25.1282 0.845079 24.2582C1.39426 23.3878 2.17736 22.69 3.10455 22.2437C2.56993 21.6436 2.28927 20.8595 2.32115 20.0563C2.35302 19.2532 2.695 18.4937 3.27539 17.9375C3.85576 17.3814 4.62914 17.0724 5.43294 17.0748C5.97 15.4196 6.74368 13.8511 7.73012 12.418C7.98271 12.0726 8.46397 11.9901 8.8167 12.2316C8.98544 12.3477 9.10013 12.5264 9.13512 12.7281C9.17011 12.9298 9.12265 13.1366 9.00311 13.3029C8.13238 14.5957 7.45288 16.0072 6.98516 17.494C7.94455 18.0481 8.53636 19.0712 8.53743 20.1793C8.53569 20.9412 8.254 21.6761 7.7457 22.2436C8.67812 22.6847 9.46632 23.3808 10.0187 24.2519C10.571 25.123 10.8648 26.133 10.8658 27.1645C10.8658 27.3703 10.784 27.5678 10.6385 27.7133C10.493 27.8588 10.2955 27.9406 10.0897 27.9406H7.14039C8.09499 30.672 9.76292 33.0981 11.9711 34.9677C14.179 36.8374 16.8469 38.0823 19.6981 38.5736C19.5041 38.1609 19.4036 37.7101 19.4032 37.2542C19.4129 36.3179 19.8447 35.4365 20.5782 34.8547C21.3113 34.273 22.268 34.053 23.182 34.2563C24.0957 34.4597 24.8687 35.0644 25.2862 35.9022C25.7037 36.7403 25.7207 37.7216 25.333 38.5736C28.1836 38.0805 30.8508 36.8352 33.0587 34.9656C35.2665 33.0963 36.9344 30.6709 37.8908 27.9406H34.9259C34.4973 27.9406 34.1498 27.5931 34.1498 27.1645C34.1529 26.1353 34.446 25.1282 34.9948 24.2581C35.544 23.3877 36.3271 22.6899 37.2543 22.2436C36.6355 21.5451 36.3639 20.6054 36.5142 19.6844C36.6646 18.7634 37.2214 17.9589 38.0305 17.4939C37.1892 14.9278 35.7274 12.6092 33.7752 10.7434C31.8228 8.87791 29.4403 7.52274 26.8386 6.79859L26.8383 6.79874Z" fill="url(#paint0_linear_446_5664)"/>
<path fill-rule="evenodd" clip-rule="evenodd" d="M18.6265 23.2838H29.4923V17.0747H28.7162C28.2876 17.0747 27.9401 16.7272 27.9401 16.2986V15.0724L26.1706 16.8575C26.0192 16.9989 25.8189 17.0768 25.6117 17.0748H18.6265L18.6265 23.2838ZM17.0742 21.7315V24.0599C17.0742 24.2657 17.156 24.4632 17.3015 24.6088C17.4471 24.7543 17.6446 24.8361 17.8504 24.8361H26.3878V27.9406H19.4026C19.1968 27.9382 18.9993 28.0227 18.8593 28.1734L17.0742 29.9429V28.7167C17.0742 28.5109 16.9925 28.3134 16.8469 28.1679C16.7014 28.0223 16.5039 27.9406 16.2981 27.9406H15.522V21.7315H17.0742ZM17.0742 20.1793V16.2986C17.0825 15.8735 17.4252 15.5308 17.8504 15.5225H25.3012L28.1729 12.6508C28.3936 12.4204 28.7346 12.3525 29.0267 12.48C29.3077 12.6071 29.4896 12.8857 29.4923 13.1941V15.5225H30.2685C30.4743 15.5225 30.6718 15.6042 30.8173 15.7498C30.9628 15.8953 31.0446 16.0928 31.0446 16.2986V24.0599C31.0446 24.2657 30.9628 24.4632 30.8173 24.6088C30.6718 24.7543 30.4743 24.8361 30.2685 24.8361H27.9401V28.7167C27.9401 28.9225 27.8583 29.12 27.7128 29.2655C27.5673 29.4111 27.3698 29.4928 27.1639 29.4928H19.7287L16.857 32.3801C16.7039 32.5191 16.505 32.5963 16.2981 32.5974C16.2008 32.6178 16.1003 32.6178 16.0033 32.5974C15.6914 32.4702 15.497 32.157 15.522 31.8213V29.4929H14.7459C14.3173 29.4929 13.9697 29.1453 13.9697 28.7167V20.9554C13.978 20.5303 14.3207 20.1876 14.7459 20.1793L17.0742 20.1793Z" fill="url(#paint1_linear_446_5664)"/>
<defs>
<linearGradient id="paint0_linear_446_5664" x1="-4.17857" y1="-1.50052" x2="50.9185" y2="7.97248" gradientUnits="userSpaceOnUse">
<stop stop-color="#74DE6F"/>
<stop offset="0.859375" stop-color="#CDE768"/>
</linearGradient>
<linearGradient id="paint1_linear_446_5664" x1="12.3842" y1="11.7432" x2="33.4626" y2="14.8082" gradientUnits="userSpaceOnUse">
<stop stop-color="#74DE6F"/>
<stop offset="0.859375" stop-color="#CDE768"/>
</linearGradient>
</defs>
</svg>
