<svg width="45" height="46" viewBox="0 0 45 46" fill="none" xmlns="http://www.w3.org/2000/svg">
<path fill-rule="evenodd" clip-rule="evenodd" d="M31.8878 15.1892L27.7691 18.4838L23.0507 15.6531C22.712 15.4486 22.2876 15.4486 21.9493 15.6531L17.2309 18.4838L13.1122 15.1892L14.5231 14.2486C14.8294 14.0441 14.9966 13.7077 14.9998 13.3647V5.8572C14.9998 5.49919 14.8208 5.16413 14.5231 4.96575L8.09451 0.679994C7.73434 0.440002 7.26512 0.440002 6.90532 0.679994L0.476761 4.96575C0.179008 5.16413 0 5.49919 0 5.8572V13.3647C0.00322861 13.7077 0.170403 14.0441 0.476761 14.2486L6.90532 18.5344C7.2655 18.7744 7.73472 18.7744 8.09451 18.5344L11.2414 16.4365L16.0714 20.3011V25.6989L11.2414 29.5635L8.09451 27.4656C7.73434 27.2256 7.26512 27.2256 6.90532 27.4656L0.476761 31.7514C0.179008 31.9498 0 32.2848 0 32.6428V40.1503C0.00322861 40.4933 0.170403 40.8298 0.476761 41.0342L6.90532 45.32C7.2655 45.56 7.73472 45.56 8.09451 45.32L14.5231 41.0342C14.8294 40.8298 14.9966 40.4933 14.9998 40.1503V32.6428C14.9998 32.2848 14.8208 31.9498 14.5231 31.7514L13.1122 30.8108L17.2309 27.5162L21.9493 30.3469C22.288 30.5514 22.7124 30.5514 23.0507 30.3469L27.7691 27.5162L31.8878 30.8108L30.4769 31.7514C30.1792 31.9498 30.0002 32.2848 30.0002 32.6428V40.1503C30.0034 40.4933 30.1706 40.8298 30.4769 41.0342L36.9055 45.32C37.2657 45.56 37.7349 45.56 38.0947 45.32L44.5232 41.0342C44.8296 40.8298 44.9968 40.4933 45 40.1503V32.6428C45 32.2848 44.821 31.9498 44.5232 31.7514L38.0947 27.4656C37.7345 27.2256 37.2653 27.2256 36.9055 27.4656L33.7586 29.5635L28.9286 25.6989V20.3011L33.7586 16.4365L36.9055 18.5344C37.2657 18.7744 37.7349 18.7744 38.0947 18.5344L44.5232 14.2486C44.8296 14.0441 44.9968 13.7077 45 13.3647V5.8572C45 5.49919 44.821 5.16413 44.5232 4.96575L38.0947 0.679994C37.7345 0.440002 37.2653 0.440002 36.9055 0.679994L30.4769 4.96575C30.1792 5.16413 30.0002 5.49919 30.0002 5.8572V13.3647C30.0034 13.7077 30.1706 14.0441 30.4769 14.2486L31.8878 15.1892ZM2.14286 39.5696L6.42869 42.4258V37.5015L2.14286 34.6453V39.5696ZM32.1431 39.5696L36.4289 42.4258V37.5015L32.1431 34.6453V39.5696ZM8.57142 37.5018V42.4261L12.8573 39.5698V34.6456L8.57142 37.5018ZM38.5717 37.5018V42.4261L42.8575 39.5698V34.6456L38.5717 37.5018ZM7.50061 29.6452L11.9974 32.6432L7.50061 35.6411L3.00383 32.6432L7.50061 29.6452ZM37.5009 29.6452L41.9976 32.6432L37.5009 35.6411L33.0041 32.6432L37.5009 29.6452ZM22.5012 17.8215L26.787 20.3928V25.6084L22.5012 28.1798L18.2154 25.6084V20.3928L22.5012 17.8215ZM2.14378 12.7849L6.42961 15.6411V10.7168L2.14378 7.86058V12.7849ZM32.144 12.7849L36.4299 15.6411V10.7168L32.144 7.86058V12.7849ZM8.57234 10.7171V15.6414L12.8582 12.7851V7.86085L8.57234 10.7171ZM38.5726 10.7171V15.6414L42.8584 12.7851V7.86085L38.5726 10.7171ZM7.50152 2.86053L11.9983 5.85848L7.50152 8.85644L3.00475 5.85848L7.50152 2.86053ZM37.5018 2.86053L41.9986 5.85848L37.5018 8.85644L33.005 5.85848L37.5018 2.86053Z" fill="url(#paint0_linear_446_5677)"/>
<defs>
<linearGradient id="paint0_linear_446_5677" x1="-4.17857" y1="-1" x2="50.9174" y2="8.47609" gradientUnits="userSpaceOnUse">
<stop stop-color="#74DE6F"/>
<stop offset="0.859375" stop-color="#CDE768"/>
</linearGradient>
</defs>
</svg>
