<svg width="45" height="42" viewBox="0 0 45 42" fill="none" xmlns="http://www.w3.org/2000/svg">
<path fill-rule="evenodd" clip-rule="evenodd" d="M19.079 0C17.0593 0 15.302 1.59856 14.8321 3.62626L13.4008 9.80032H6.68292C4.51202 9.80032 2.60451 11.3156 2.60451 13.355V13.7907C2.60451 15.8297 4.51202 17.3434 6.68292 17.3434H11.653L9.93399 24.7623H4.07841C1.90752 24.7623 0 26.2769 0 28.3159V28.7526C0 30.7917 1.90752 32.3062 4.07841 32.3062H8.18523L6.87133 37.9814C6.63637 38.9954 6.78494 39.9926 7.30852 40.7554C7.83178 41.5182 8.74415 41.9999 9.75395 41.9999H10.1938C12.2134 41.9999 13.9708 40.4014 14.4406 38.3737L15.8471 32.3063H24.5268L23.212 37.9814C22.9771 38.9955 23.1266 39.9926 23.6499 40.7555C24.1731 41.5183 25.0855 42 26.0953 42H26.5341C28.5538 42 30.3121 40.4014 30.782 38.3737L32.1875 32.3064H38.317C40.4879 32.3064 42.3954 30.7918 42.3954 28.7528V28.3161C42.3954 26.277 40.4879 24.7625 38.317 24.7625H33.9347L35.6537 17.3435H40.9216C43.0925 17.3435 45 15.83 45 13.7908V13.3551C45 11.316 43.0925 9.80048 40.9216 9.80048H37.4021L38.7425 4.01872C38.9774 3.00499 38.8285 2.00878 38.3053 1.24568C37.7824 0.482563 36.8697 0.000165889 35.8599 0.000165889H35.421C33.4013 0.000165889 31.643 1.59872 31.1731 3.62642L29.7418 9.80048H21.0621L22.4007 4.01872C22.6357 3.00499 22.4875 2.00878 21.9645 1.24568C21.4416 0.482563 20.5289 0.000165889 19.5191 0.000165889L19.079 0ZM19.079 1.75641H19.5188C20.0051 1.75641 20.2908 1.93082 20.4973 2.23198C20.7038 2.53314 20.8154 3.00904 20.6724 3.6263L18.8352 11.5577H31.1532L32.9007 4.01818C33.1867 2.78403 34.4479 1.75603 35.4204 1.75603H35.8592C36.3455 1.75603 36.6312 1.93044 36.8377 2.23161C37.0442 2.53277 37.1567 3.00867 37.0137 3.62593L35.1747 11.5573H40.9207C42.2863 11.5573 43.2251 12.4294 43.2251 13.3545V13.7902C43.2251 14.7154 42.2863 15.5866 40.9207 15.5866H34.2411L31.7086 26.518H38.3169C39.6825 26.518 40.6224 27.3901 40.6224 28.3153V28.7519C40.6224 29.6771 39.6825 30.5502 38.3169 30.5502H30.7751L29.0534 37.9804C28.7674 39.2145 27.5062 40.2415 26.5337 40.2415H26.0949C25.6086 40.2415 25.3223 40.0681 25.1155 39.7669C24.9087 39.4654 24.7964 38.9899 24.9394 38.3726L26.7527 30.5501H14.4347L12.7121 37.9803C12.4261 39.2145 11.1659 40.2415 10.1934 40.2415H9.75361C9.26733 40.2415 8.98166 40.068 8.77514 39.7669C8.56832 39.4654 8.45608 38.9898 8.59908 38.3725L10.4113 30.55H4.07793C2.71234 30.55 1.77249 29.677 1.77249 28.7518V28.3151C1.77249 27.39 2.71234 26.5179 4.07793 26.5179H11.3456L13.8791 15.5864H6.68277C5.31718 15.5864 4.37733 14.715 4.37733 13.7901V13.3544C4.37733 12.4292 5.31718 11.5572 6.68277 11.5572H14.8127L16.5601 4.01767C16.8461 2.78353 18.1063 1.75553 19.0789 1.75553L19.079 1.75641ZM22.4947 13.2257L20.6465 19.294L14.25 19.1705L19.5048 22.7857L17.4092 28.7749L22.5033 24.9418L27.6049 28.7668L25.4995 22.7815L30.748 19.1571L24.3515 19.2913L22.4941 13.2259L22.4947 13.2257Z" fill="url(#paint0_linear_446_5668)"/>
<defs>
<linearGradient id="paint0_linear_446_5668" x1="-4.17857" y1="-1.4" x2="50.6842" y2="8.70998" gradientUnits="userSpaceOnUse">
<stop stop-color="#74DE6F"/>
<stop offset="0.859375" stop-color="#CDE768"/>
</linearGradient>
</defs>
</svg>
