<svg width="40" height="36" viewBox="0 0 40 36" fill="none" xmlns="http://www.w3.org/2000/svg">
<path d="M32.7399 12.2646C32.7845 14.5774 31.9041 16.812 30.2945 18.4731C30.0377 18.7402 30.0457 19.1646 30.3125 19.4215C30.5795 19.6783 31.004 19.6699 31.2608 19.4032C33.1135 17.4844 34.128 14.9082 34.0816 12.2413C34.0349 9.57466 32.9312 7.03525 31.0127 5.18233C30.7462 4.92848 30.3251 4.93657 30.0688 5.20059C29.8126 5.46461 29.8168 5.8858 30.0784 6.14472C31.7455 7.74866 32.7034 9.95156 32.7399 12.2646H32.7399Z" fill="url(#paint0_linear_446_5623)"/>
<path d="M30.0577 12.2783C30.0901 13.8793 29.4806 15.4266 28.3646 16.5752C28.2409 16.703 28.1736 16.8748 28.1766 17.0526C28.1799 17.2305 28.2535 17.3999 28.3813 17.5232C28.5092 17.6469 28.681 17.7145 28.8588 17.7112C29.0366 17.7082 29.2061 17.6346 29.3294 17.5065C30.6881 16.0992 31.4323 14.21 31.3979 12.2544C31.3638 10.2985 30.554 8.43649 29.1471 7.0777C28.8807 6.82026 28.4562 6.82804 28.199 7.09446C27.9419 7.36089 27.9494 7.78536 28.2158 8.0425C29.3707 9.15192 30.0341 10.6771 30.0577 12.2783L30.0577 12.2783Z" fill="url(#paint1_linear_446_5623)"/>
<path d="M9.22329 19.6089C9.49211 19.6086 9.73458 19.4482 9.83966 19.2009C9.94473 18.9536 9.89234 18.6675 9.70614 18.4738C8.09922 16.8103 7.21946 14.5768 7.25985 12.2647C7.30026 9.95252 8.25785 7.75115 9.92194 6.14514C10.0516 6.02181 10.1261 5.85178 10.1297 5.67276C10.1333 5.49405 10.065 5.32103 9.9405 5.19291C9.81567 5.06448 9.64504 4.99115 9.46633 4.98935C9.28732 4.98756 9.11519 5.05731 8.98797 5.18303C7.06945 7.03603 5.96546 9.57505 5.91902 12.242C5.87232 14.9089 6.88713 17.4851 8.73983 19.4039C8.86645 19.535 9.04097 19.6093 9.22328 19.609L9.22329 19.6089Z" fill="url(#paint2_linear_446_5623)"/>
<path d="M10.671 17.5065C10.9281 17.7729 11.3526 17.7807 11.619 17.5232C11.8857 17.2661 11.8932 16.8416 11.6358 16.5752C10.5243 15.4239 9.91542 13.8781 9.94324 12.278C9.97138 10.678 10.6335 9.1543 11.7848 8.0425C12.0512 7.78535 12.0587 7.36088 11.8016 7.09446C11.5444 6.82804 11.12 6.82026 10.8532 7.0777C9.44633 8.43641 8.63654 10.2984 8.60244 12.2544C8.56832 14.2101 9.3122 16.0992 10.6709 17.5065H10.671Z" fill="url(#paint3_linear_446_5623)"/>
<path d="M11.2825 12.3001C11.2825 12.4779 11.3531 12.6486 11.4788 12.7743C11.6046 12.9 11.7752 12.9707 11.953 12.9707H13.2941C13.5827 12.9704 13.8386 12.7857 13.9299 12.5121L14.5427 10.6735L15.9964 16.4857C16.0652 16.7578 16.296 16.958 16.575 16.988C16.854 17.0179 17.1222 16.8709 17.247 16.6198L19.0728 12.9707H19.9996C20.2959 12.9707 20.5569 12.7764 20.642 12.4926L21.8657 8.41099L24.0348 19.7995C24.0944 20.1165 24.371 20.3464 24.6934 20.3467C25.0161 20.3452 25.2921 20.1138 25.3499 19.7962L26.5943 12.9708H28.0461C28.4164 12.9708 28.7166 12.6705 28.7166 12.3002C28.7166 11.9299 28.4164 11.6297 28.0461 11.6297H26.0344C25.7105 11.63 25.4334 11.8617 25.3753 12.1802L24.6787 16.0115L22.6671 5.46907C22.609 5.16583 22.3512 4.94102 22.0429 4.92515C21.7343 4.90928 21.455 5.10626 21.3661 5.40202L19.5005 11.6294H18.6585C18.4043 11.6294 18.172 11.7728 18.0583 12.0003L16.8573 14.4023L15.2857 8.11444C15.2129 7.82557 14.9588 7.61932 14.6612 7.60794C14.3637 7.59627 14.0943 7.78246 13.9994 8.06475L12.8106 11.6294H11.953C11.5827 11.6294 11.2825 11.9297 11.2825 12.3L11.2825 12.3001Z" fill="url(#paint4_linear_446_5623)"/>
<path d="M15.3057 23.0292H24.6933V24.3703H15.3057V23.0292Z" fill="url(#paint5_linear_446_5623)"/>
<path d="M13.2942 23.0292H14.6353V24.3703H13.2942V23.0292Z" fill="url(#paint6_linear_446_5623)"/>
<path d="M25.364 23.0292H26.7051V24.3703H25.364V23.0292Z" fill="url(#paint7_linear_446_5623)"/>
<path d="M18.6584 29.7341H21.3406V31.0752H18.6584V29.7341Z" fill="url(#paint8_linear_446_5623)"/>
<path d="M38.8737 20.1814C38.8323 19.6785 38.6034 19.2097 38.2322 18.8678C37.8613 18.5257 37.3754 18.3359 36.8707 18.3353H36.093V2.24224C36.093 1.70881 35.8811 1.19689 35.5039 0.819772C35.1267 0.442658 34.6148 0.230652 34.0814 0.230652H5.91859C5.38515 0.230652 4.87323 0.442589 4.49612 0.819772C4.119 1.19695 3.907 1.70887 3.907 2.24224V18.3353H3.12932C2.62552 18.3359 2.14029 18.5254 1.76938 18.8663C1.39879 19.2076 1.16949 19.6752 1.12698 20.1771L0.00713189 33.588C-0.0401656 34.1487 0.149326 34.7037 0.529796 35.118C0.910266 35.5326 1.44672 35.7688 2.00951 35.7694H37.9905C38.5533 35.7688 39.0897 35.5326 39.4702 35.118C39.8507 34.7037 40.0402 34.1487 39.9929 33.588L38.8737 20.1814ZM4.63073 26.5728C4.98965 26.8805 5.44619 27.0506 5.91887 27.0523H34.0817C34.5544 27.0503 35.0109 26.8802 35.3698 26.5728L35.7407 31.0191V31.0194C35.7563 31.2059 35.6934 31.3909 35.5668 31.5289C35.4402 31.6669 35.2615 31.7456 35.0741 31.7462H4.92643C4.73874 31.7459 4.55972 31.6666 4.4331 31.5283C4.30618 31.3897 4.24361 31.2044 4.25978 31.0173L4.63073 26.5728ZM5.24829 2.24241C5.24829 1.87212 5.54854 1.57187 5.91884 1.57187H34.0817C34.2595 1.57187 34.4301 1.64252 34.5558 1.76824C34.6816 1.89397 34.7522 2.0646 34.7522 2.24241V25.0409C34.7522 25.2187 34.6816 25.3893 34.5558 25.5151C34.4301 25.6408 34.2595 25.7114 34.0817 25.7114H5.91884C5.54854 25.7114 5.24829 25.4112 5.24829 25.0409V2.24241ZM38.4827 34.2124C38.3567 34.351 38.178 34.4294 37.9906 34.4282H2.00961C1.82192 34.4279 1.64291 34.3486 1.51628 34.2103C1.38936 34.0717 1.32679 33.8864 1.34296 33.6993L2.46342 20.2846C2.49395 19.9397 2.78313 19.6754 3.12947 19.6763H3.90715V21.946C3.72604 22.2184 3.61828 22.533 3.59463 22.8593L2.92409 30.9058C2.87679 31.4665 3.06628 32.0215 3.44675 32.4358C3.82722 32.8504 4.36367 33.0866 4.92647 33.0872H35.0741C35.6369 33.0866 36.1733 32.8504 36.5538 32.4358C36.9343 32.0215 37.1238 31.4665 37.0765 30.9058L36.4059 22.8693C36.3829 22.5397 36.2751 22.2218 36.0934 21.9457V19.6761H36.8711C37.2183 19.677 37.5075 19.9425 37.5377 20.2883L38.6576 33.6991C38.675 33.8871 38.6115 34.0736 38.4831 34.2122L38.4827 34.2124Z" fill="url(#paint9_linear_446_5623)"/>
<defs>
<linearGradient id="paint0_linear_446_5623" x1="29.489" y1="4.51007" x2="34.7752" y2="4.77164" gradientUnits="userSpaceOnUse">
<stop stop-color="#74DE6F"/>
<stop offset="0.859375" stop-color="#CDE768"/>
</linearGradient>
<linearGradient id="paint1_linear_446_5623" x1="27.6964" y1="6.5288" x2="31.9549" y2="6.75811" gradientUnits="userSpaceOnUse">
<stop stop-color="#74DE6F"/>
<stop offset="0.859375" stop-color="#CDE768"/>
</linearGradient>
<linearGradient id="paint2_linear_446_5623" x1="5.52633" y1="4.502" x2="10.8233" y2="4.76449" gradientUnits="userSpaceOnUse">
<stop stop-color="#74DE6F"/>
<stop offset="0.859375" stop-color="#CDE768"/>
</linearGradient>
<linearGradient id="paint3_linear_446_5623" x1="8.28669" y1="6.5288" x2="12.5456" y2="6.75814" gradientUnits="userSpaceOnUse">
<stop stop-color="#74DE6F"/>
<stop offset="0.859375" stop-color="#CDE768"/>
</linearGradient>
<linearGradient id="paint4_linear_446_5623" x1="9.66359" y1="4.41017" x2="30.8401" y2="8.52746" gradientUnits="userSpaceOnUse">
<stop stop-color="#74DE6F"/>
<stop offset="0.859375" stop-color="#CDE768"/>
</linearGradient>
<linearGradient id="paint5_linear_446_5623" x1="14.434" y1="22.9845" x2="19.2651" y2="28.8009" gradientUnits="userSpaceOnUse">
<stop stop-color="#74DE6F"/>
<stop offset="0.859375" stop-color="#CDE768"/>
</linearGradient>
<linearGradient id="paint6_linear_446_5623" x1="13.1697" y1="22.9845" x2="14.8116" y2="23.2669" gradientUnits="userSpaceOnUse">
<stop stop-color="#74DE6F"/>
<stop offset="0.859375" stop-color="#CDE768"/>
</linearGradient>
<linearGradient id="paint7_linear_446_5623" x1="25.2395" y1="22.9845" x2="26.8815" y2="23.2669" gradientUnits="userSpaceOnUse">
<stop stop-color="#74DE6F"/>
<stop offset="0.859375" stop-color="#CDE768"/>
</linearGradient>
<linearGradient id="paint8_linear_446_5623" x1="18.4094" y1="29.6894" x2="21.4327" y2="30.7294" gradientUnits="userSpaceOnUse">
<stop stop-color="#74DE6F"/>
<stop offset="0.859375" stop-color="#CDE768"/>
</linearGradient>
<linearGradient id="paint9_linear_446_5623" x1="-3.71429" y1="-0.953975" x2="44.8873" y2="8.45448" gradientUnits="userSpaceOnUse">
<stop stop-color="#74DE6F"/>
<stop offset="0.859375" stop-color="#CDE768"/>
</linearGradient>
</defs>
</svg>
